<?xml version="1.0" encoding="utf-8"?>
<!-- Generator: Adobe Illustrator 19.2.1, SVG Export Plug-In . SVG Version: 6.00 Build 0)  -->
<svg version="1.1" id="layer" xmlns="http://www.w3.org/2000/svg" xmlns:xlink="http://www.w3.org/1999/xlink" x="0px" y="0px"
	 viewBox="0 0 652 652" style="enable-background:new 0 0 652 652;" xml:space="preserve">
<style type="text/css">
	.st0{fill:#1673E6;}
</style>
<path class="st0" d="M620,357.9h-15.8l-20.1-27.6l0,27.6h-13.5v-72.7h13.5l0,41.6l19.7-23.3h15.8L598,328.4L620,357.9z M544.3,347.6
	c9.8,0,16.4-5.3,16.4-5.3v12.3c-4.1,2.2-9.6,4.4-17.9,4.4c-27.9,0-29.3-21.8-29.3-28.4c0-14.8,9.3-28.4,25.9-28.4
	c24,0,23.9,21.3,23.9,25.5v7h-36.2C528,341.4,533.4,347.6,544.3,347.6z M550.6,323.8c-0.6-5.2-3.3-10.2-10.6-10.2
	c-8.5,0-12,5.4-12.8,10.2H550.6z M488.4,347.6c9.8,0,16.4-5.3,16.4-5.3v12.3c-4.1,2.2-9.6,4.4-17.9,4.4c-27.9,0-29.3-21.8-29.3-28.4
	c0-14.8,9.3-28.4,25.9-28.4c24,0,23.9,21.3,23.9,25.5v7h-36.2C472.2,341.4,477.5,347.6,488.4,347.6z M494.8,323.8
	c-0.6-5.2-3.3-10.2-10.6-10.2c-8.5,0-12,5.4-12.8,10.2H494.8z M428,359c-22.2,0-36.9-13.4-36.9-36.8c0-24.4,17.8-38.2,36.7-38.2
	c14.2,0,21,4.5,21,4.5v13.8c-5.6-3.4-10.6-6.2-20.7-6.2c-14.1,0-22.9,12-22.9,26c0,13.2,7.7,24.6,22.4,24.6c5.6,0,9.3-1.3,9.3-1.3
	v-15.6h-14.6v-12.1h21.5c3.6,0,6.6,3,6.6,6.6v30C450.4,354.6,443.3,359,428,359z M378.4,347.6c4.3,0,9.4-2.9,9.4-2.9l0,11.7
	c0,0-4.2,2.6-12.9,2.6c-18.5,0-17.8-13.5-17.8-21.6v-47.4h13.5c0,3.5,0,8.2,0,13.3h15.1v11.5h-15.1c0,11.6,0,24.5,0,24.5
	C370.6,344.3,372.2,347.6,378.4,347.6z M305.8,342.7c0-14,11.5-17.8,30.2-17.1c0-6.4-0.4-11.9-10.7-11.9c-8,0-16.2,5.3-16.2,5.3
	v-12.3c0,0,9.2-4.5,19.5-4.5c6.9,0,20.8,0.9,20.8,20.3c0,17.8,0,34.5,0,34.5s-10.8,2-18.9,2C320,359,305.8,356.7,305.8,342.7z
	 M335.9,335c-4.2-0.2-16.5-1.3-16.5,6.7c0,9.3,16.5,6.1,16.5,6.1V335z M282.4,347.6c9.8,0,16.4-5.3,16.4-5.3v12.3
	c-4.1,2.2-9.6,4.4-17.9,4.4c-27.9,0-29.3-21.8-29.3-28.4c0-14.8,9.3-28.4,25.9-28.4c24,0,23.9,21.3,23.9,25.5v7h-36.2
	C266.1,341.4,271.5,347.6,282.4,347.6z M288.7,323.8c-0.6-5.2-3.3-10.2-10.6-10.2c-8.5,0-12,5.4-12.8,10.2H288.7z M230.5,317.4
	c3.6,1.5,15.9,6.4,15.9,20.2c0,16.2-14,21.5-27.9,21.5c-13.9,0-22.8-5.9-22.8-5.9v-13.9c0,0,11.3,7.6,22.8,7.6s13.8-4.1,13.8-8.2
	c0-4.1-2.1-6-5.5-7.8c-3.4-1.8-9.7-4.2-16.7-6.7c-7-2.5-15.3-6.8-15.3-19.2c0-15,13-21,26.2-21c13.1,0,21.3,4.5,21.3,4.5v13.8
	c0,0-10.4-6.2-21.9-6.2c-8.1,0-11.2,3.3-11.5,7.5c-0.4,4.5,2.8,6.1,5.7,7.6C216.5,312.4,227.6,316.1,230.5,317.4z M155.3,347.6
	h-12.8v-22.9c0-3.7,3-6.7,6.7-6.7h17.4v12.1h-11.2V347.6z M93.3,378.3c-29.1,0-48.2-8.1-48.2-8.1v-13.7c0,0,18.7,8.6,48.2,8.6
	c29.4,0,48.1-8.6,48.1-8.6v13.7C141.4,370.2,122.4,378.3,93.3,378.3z M57.2,342.2l-12-64.3c0,0,18.4-12.1,48.2-12.1
	c29.8,0,48.1,12.1,48.1,12.1l-12,64.3H57.2z M31.2,330.1H20V318h17.4c3.7,0,6.7,3,6.7,6.7v22.9H31.2V330.1z"/>
</svg>
