<?xml version="1.0" encoding="utf-8"?>
<!-- Generator: Adobe Illustrator 19.0.0, SVG Export Plug-In . SVG Version: 6.00 Build 0)  -->
<svg version="1.1" id="Layer_1" xmlns="http://www.w3.org/2000/svg" xmlns:xlink="http://www.w3.org/1999/xlink" x="0px" y="0px"
	 viewBox="0 0 500 500" style="enable-background:new 0 0 500 500;" xml:space="preserve">
<style type="text/css">
	.st0{fill:#C4CED4;}
	.st1{fill:#0C1E24;}
	.st2{fill:#FFFFFF;}
	.st3{fill:#0474BC;}
</style>
<g id="XMLID_1_">
	<path id="XMLID_5_" class="st0" d="M287.1,185.5l1.2,0.1l2.6,11.6l31.6,2.8v5.4l-35.4-3V185.5z M432.5,233.7V183l-0.1,0
		c-0.4-0.1-28.9-10.1-45.6-13.9c-19.6-4.4-25.2,10.7-26.1,13.3v-19.1c0,0-53.6-10.3-92-9.8c-6.6,0.1-16.5,2.5-19.7,16.4v-16.8
		c0,0-36.8,1.1-50.5,2.3c-3.4,0.3-18.1,1.6-22.8,18.3l0-16.2c0,0-48.5,5.8-92,19.8c-6.3,2-16.3,9.4-16.3,20.4v111.6l36.5-11.7v-19.2
		l33.3-7.9l0,19.2c0,0,8.5-1.8,16.4-3.4c-16.8,14.3-30.5,32.5-39,52.4c22.1-19,44.1-37.4,76.7-46.2l-7.4,17.2
		c26-14.2,60.9-14.7,88.6-5.8l-2.1,4.6c-17.2-7.2-36.8-8.1-56.4-5.1c19.2,6.6,35.4,11.7,51.5,22.3c-1.1,29.9,23.5,58.6,55.2,58.3
		c50.9-0.4,74.4-60.1,45.9-97c2.9,2.2,6.5,3.8,11.8,5.5c18,5,53.8,15.6,53.8,15.6v-47.6l-27.4-8.2l-3,13.3c-1.8-0.6-4.4-0.7-4.4-2
		c0-0.7,0-35.9,0-53.8l2.2,13.9L432.5,233.7L432.5,233.7z"/>
	<path id="XMLID_6_" class="st1" d="M399.7,201.7l3,19.5l26.3,8.1v0l0.1,0v-44c0,0-26.2-9.2-43.1-13c-5.8-1.6-22.8-2.6-23.2,18.9
		v74.3c0,12.8,6.8,21.3,19.6,24.7c19.5,5.1,46.8,13.5,46.8,13.5v-40.8l-21.6-6.5l-3,13.3c-2.4-0.7-4.3-1.2-6.8-1.9
		c-2.7-0.7-3.2-2.1-3.3-3.5v-64.1C394.8,200.3,398.9,201.5,399.7,201.7"/>
	<path id="XMLID_7_" class="st1" d="M325.7,161.1v118.4l5.9,0.5c1.8,0.2,16,2.6,17.7,2.9l8.1,2V166
		C357.5,165.8,337.7,162.6,325.7,161.1"/>
	<path id="XMLID_10_" class="st1" d="M287.8,229.1v22c-0.6,0-3.5,0.2-3.9-1.7v-20.6L287.8,229.1z M290.9,182.4l2.6,11.7l26.2,2.3
		v-36.1c0,0-38.2-3.6-48.9-3.6c-6.4,0-18.6,2.3-19,18.6v77.3c0,13.4,7.7,21.4,21.2,21.9c0,0,28,1.4,38.8,3l7.8,1.5v-70.6v0
		l-35.9-2.9V182L290.9,182.4z"/>
	<path id="XMLID_13_" class="st1" d="M209.9,205.9v-22.5c0.1-1.4,3.3-1.3,3.8-1.3v23.6C212.5,205.8,211.2,205.9,209.9,205.9
		 M198.9,158.6c-13.1,1.2-20.8,10-20.8,23.4l0,97.1l7.7-1.4c1.7-0.2,16.1-1.7,17.9-1.8l6.3-0.2v-43.4c1.2-0.1,2.5-0.2,3.8-0.3v43.6
		l7.2-0.8c1.6-0.1,15.6-0.7,18-0.7l6.8,0.4V156.4C245.8,156.4,213.1,157.3,198.9,158.6"/>
	<path id="XMLID_14_" class="st1" d="M172.5,161.2c0,0-29.7,4.5-38.6,6.4c-2,0.5-4,1.2-5.8,2.2l0-1c0,0-24.7,5.5-43.4,11.5
		c-5.8,1.9-14.1,8.5-14.1,17.3v106.8l30-9.5V206c0-1.6,1.4-2.9,4.2-3.7c0.1,0,0.3-0.1,0.5-0.1v72.5l31.7-7.5v-69.4
		c0.4-3.2,3.1-3.5,3.3-3.5v91.2c0,0,24.6-5,26-5.1l6-0.5L172.5,161.2z"/>
	<path id="XMLID_15_" class="st2" d="M410.3,261.3l-3,13.2c-4.8-1.4-7.1-2.1-10.6-3c-3.4-0.9-5.4-2.8-6-5.8V198
		c1.1-3.8,6.1-0.6,12.3,0.7l3,19.5l19.1,5.9V188c0,0-23.8-8.1-40.1-12c-1.8-0.4-18.1-4.3-18.5,15.2v74.3c0,11,5.6,18.1,16.7,21
		c16,4.2,42,12,42,12v-32.8L410.3,261.3z"/>
	<path id="XMLID_16_" class="st2" d="M353.6,169.2l-24.1-3.7V276c0,0,19.5,2.9,20.7,3.2l3.4,0.9L353.6,169.2z"/>
	<path id="XMLID_17_" class="st2" d="M284.9,178.2c0.2,0,6.8,0.4,9.2,0.6l2.6,11.7l19.3,1.7v-28.5c0,0-39.9-3.5-45-3.3
		c-4.8,0.2-14.5,1-15.2,14.7v77.3c0,11.4,6.1,17.6,17.6,18.1c0,0,26.5,1.3,38.1,2.8l4.6,0.8v-62.5v0l-29.1-2.3v15.7
		c0,0,3.9,0.3,4.9,0.4v29.6c-3.6-0.2-11.3,0.6-11.6-5.8V181C280.3,179.7,281.3,178.2,284.9,178.2"/>
	<path id="XMLID_20_" class="st2" d="M217.3,209.1c-0.1,0-7.4,0.4-10.9,0.6v-26.5c0.3-2.8,2.2-4.3,5.6-4.6c0,0,3.5-0.2,5.2-0.3
		V209.1z M199.2,162.2c-11.1,1.1-17.5,8.2-17.6,19.6h0v93.1l0,0v0l0.4-0.1l3.8-0.7c3.2-0.4,16.5-1.7,17.7-1.8l2.9-0.1V229
		c3.5-0.3,7.2-0.5,10.9-0.8l0,43.3l3.3-0.3c1.1-0.1,15.8-0.7,18.4-0.7l3.3,0.2V160.1C242.2,160.1,213.7,160.7,199.2,162.2"/>
	<path id="XMLID_21_" class="st2" d="M168.7,165.7L168.7,165.7L168.7,165.7c0,0-29,4.4-33.9,5.7c-3.9,1-6.8,2.6-10.3,6.5v-4.2
		c0,0-20.1,4.4-38.5,10.4c-4.6,1.5-11.4,6.9-11.4,13.7v101.2l22.3-7l0-85.9c-0.1-7.2,10.3-8.1,12.4-8.5v72.3l24-5.7
		c0,0,0-62.9,0-66.6c0.8-7.9,9.6-7.3,11-7.8l0,90.8l11.8-2l0,0l12.5-2.2v-0.3l0.1,0V165.7z"/>
	<path id="XMLID_22_" class="st3" d="M422.5,267.8l-10.2-3l-3,13.2c-6.6-2-9.2-2.7-13.3-3.8c-3.9-1-7.9-3.8-8.2-9.7v-65.7
		c0.8-5.1,4.1-6,8.2-4.9c0-0.1,4.3,1.2,9.5,2.7l3.1,19.5l13.9,4.3v-30.5c-7.7-2.7-22.9-7.7-38-11.3c-9.7-2.3-15.2,2.6-15.2,12.5
		v74.3c0,10,5,15.8,14.7,18.4c19.8,5.2,38.6,11,38.6,11L422.5,267.8z"/>
	<path id="XMLID_23_" class="st3" d="M332.3,273.5c1.2,0.1,17.5,2.8,18.6,3.1V171.5c-5.6-1-10.6-1.8-18.6-2.9V273.5z"/>
	<path id="XMLID_24_" class="st3" d="M289.5,222.6c1,0.1,4.9,0.3,4.9,0.3v35.1c-2.9-0.2-5.8-0.4-8.6-0.6c-4.2-0.3-8.4-3-8.4-8.6
		c0-0.2,0-67.7,0-67.7c0.6-5.1,5.5-5.8,8.5-5.6c0-0.1,4.9,0.3,10.6,0.8l2.6,11.7l14.3,1.3v-23h-0.1v0c-26-2.5-40.5-3-40.5-3
		c-3-0.1-7.6-0.1-10.8,2.9c-2,1.9-3.4,5.1-3.4,9.1v77.3c0,9.9,5,15,15,15.4c0-0.3,34.8,2.1,39.8,3.1v-56.7v0
		c-8.3-0.8-13.1-1.3-23.7-1.9V222.6z"/>
	<path id="XMLID_27_" class="st3" d="M203.4,183.1c0.2-2,1.3-6.9,8.4-7.4c2.8-0.2,5.6-0.4,8.4-0.5V212c-5.6,0.3-11.3,0.5-16.9,1
		V183.1z M184.6,182c0,0,0,87.9,0,89.2c1.2-0.2,17.6-1.9,18.8-1.9v-43.1c5.6-0.5,11.3-0.9,16.9-1.2v43.2c1.2-0.1,17.8-0.7,19-0.7
		V163.2c-11.2,0.3-26.6,0.8-39.8,2C189.6,166.1,184.6,172.1,184.6,182"/>
	<path id="XMLID_28_" class="st3" d="M135.3,174.1c-6.9,1.6-12.1,8.1-13.6,16v-13c0,0-16.4,3.6-35,9.6c-3.7,1.2-9.5,5.7-9.5,11.1
		v97.2c1.1-0.4,15.7-4.9,16.9-5.2V206c0-5.8,4.8-8.8,8.9-10c2.3-0.7,9-1.7,9-1.7v72l18.6-4.4v-64.8c0.7-4.9,3.3-8.1,8.3-9.3
		c4.7-0.8,8.2-1.3,8.2-1.3l0,90.4c1.1-0.3,17.7-3.1,18.8-3.2c0-20.9,0-104.9,0-104.9S144.1,172.1,135.3,174.1"/>
	<path id="XMLID_29_" class="st1" d="M332.5,266.3c72.6,28.7,42.4,113.2-10.8,113.8c-29.1,0.3-53.9-26.7-51.9-55.6
		c-13.1-10.5-29.6-15.6-45.5-20.1c14.4-1.5,34.7,2.2,47.9,8.3l4.9-10.7c-24.4-8.9-63-10.5-86.7,1l6.5-15.2
		c-25.1,5.6-53.2,21.1-74,40.5c14.5-27.9,47.5-56.1,77.6-65.5l-2.2,6.6c19.4-7,39.6-10.9,60.1-12.1c21.8-1.3,39.5,0,54.6,3.3
		c-2.7-3.5-7.1-9.8-7.1-9.8s11.7,3,14,3.6c1.2-2,3.6-5.8,3.6-5.8l3.7-5.9c0,0,1.8,12.3,2.1,14.4c2,0.7,13.3,4.4,13.3,4.4
		L332.5,266.3z"/>
	<path id="XMLID_38_" class="st0" d="M340.6,308c2.7,3.6,5.7,7.9,7.9,12c5.2-3.5,9.8-7.3,13.9-12c-2.6-5-7.1-10.5-10.3-13.3
		C349,299.8,345.2,304.2,340.6,308 M350.2,323.4c1.3,2.9,2.4,5.9,3.4,8.9c4.5-1.5,8.8-2.2,13.5-2.5c0.1-6.7-0.8-11.7-3-18
		C359.8,316.3,355.3,320,350.2,323.4 M354.5,335.9c1.6,7.2,2.1,14.4,1.7,21.7c5.8-7.7,8.8-14.3,10.5-24.1
		C362.5,333.9,358.4,334.5,354.5,335.9 M351.4,337.5c-14.4,6.8-20.2,21.9-25.9,35.7c9.5-1.1,18.2-4.3,25.5-10.5
		C353.2,354.5,353,345.8,351.4,337.5 M350.3,333.7c-0.9-2.9-1.9-5.7-3.1-8.4c-20.4,12-44.4,17.9-68,17.8
		c6.9,18.1,22.9,30.1,42.4,30.3C327.7,358.1,334.6,341.4,350.3,333.7 M345.5,321.8c-2.2-4.2-5-8.1-7.9-11.8
		c-18.7,11.9-37.4,5-56.3-1.9c-4.7,9.9-5.9,20.5-3.3,31.1C301,339.8,325.7,333.6,345.5,321.8 M335.6,307
		c-26-28.6-77.8-34.3-113.7-24.5c24.9-0.7,74.3,0.7,92,21.7c-5.7-3.2-17.2-8.5-24.1-8.1c-2.4,2.7-4.6,5.7-6.5,8.7
		C300.6,311.2,318.3,317.7,335.6,307 M338.4,305c4.6-3.6,8.6-7.6,11.3-12.7c-8.1-7.9-23.6-17.7-62.9-20.4c16.7,3.8,32.3,9,41.1,15.3
		c-7.2-2.8-11.7-3.5-11.7-3.5c-2.1,0.3-5.1,0.6-7.3,1.1C320.8,289.5,329.6,295.2,338.4,305"/>
	<polygon id="XMLID_39_" class="st0" points="314.1,270.2 322.2,267.4 328.3,274.4 327.6,265.3 335.4,261.9 326.9,259.1 325.6,250 
		321.1,257.4 312.4,255.2 318.2,262.5 	"/>
	<path id="XMLID_43_" class="st3" d="M283.6,314.9c12.4,5.8,22.2,6,34.8,6.6l-20.3,6c10.2,0.5,22.2-0.5,32.3-2.6
		c-21.9,10.9-48.5,10.1-48.5,10.1C279.8,328.4,280.8,320,283.6,314.9 M286,348.6c13.6-0.5,32.8-4.2,47.5-12.8
		c-8.5,8.6-17.6,13.4-31.5,20.6c15.2-2.6,22.6-8.5,32.6-15.9c-7.7,8.6-11.5,17.8-17.5,27.2C317.1,367.7,299.4,369.9,286,348.6
		 M330.9,369.3c8.5-3,12.9-6.4,14.7-7.8c1.3-2.9,1.9-9,1.9-16.5l-5.4,9.1l1.7-8.9C336.1,354.5,333.2,361.1,330.9,369.3"/>
	<polygon id="XMLID_44_" class="st2" points="271.1,276.8 276.7,274 281.4,278.2 280.5,272 285.9,268.8 279.7,267.8 278.4,261.7 
		275.5,267.2 269.2,266.6 273.6,271.1 	"/>
	<polygon id="XMLID_45_" class="st2" points="208,289.2 211.7,287.4 214.7,290.1 214.1,286 217.7,284 213.6,283.3 212.8,279.3 
		210.9,282.9 206.8,282.5 209.6,285.4 	"/>
	<path id="XMLID_50_" class="st2" d="M324.6,281.6c-0.7-0.4-1.4-0.7-2.1-1c11.4,3.4,19.1,7.8,23.4,11.1c-0.7,1-1.4,1.9-2.2,2.8
		C338.4,289,332,284.6,324.6,281.6 M359.7,345.3l0-0.7c0.6-3.1,1-6.1,1.1-9.2c0.8-0.2,1.6-0.4,2.5-0.5
		C362.3,338.7,361.2,342.1,359.7,345.3 M364.4,325.4c-1.5,0.2-2.9,0.4-4.2,0.7c-0.3-2.2-0.7-4.4-1.3-6.5c1.5-1.2,2.9-2.5,4.3-3.9
		C364.1,318.9,364.4,321.8,364.4,325.4 M359.4,306.7c-1.3,1.4-2.5,2.6-3.7,3.7c-1.4-3-3-5.8-4.9-8.5c1-1.2,1.9-2.4,2.8-3.7
		C356,300.8,358,303.9,359.4,306.7"/>
	<path id="XMLID_53_" class="st1" d="M324.2,146c0,0.8-0.4,1.2-1,1.1c-0.5-0.1-1.8-0.2-2.7-0.3c-0.6-0.1-1-0.2-1-1.4v-17.2
		c0-0.9,0.5-1.2,1.1-1.1c0.6,0.1,1.7,0.3,2.4,0.4c0.6,0.1,1.3,0.2,1.3,1V146z M326.1,122.5c-2-0.4-9.2-1.5-9.6-1.5
		c-3.8,0.1-4.3,3.2-4.3,4.2v20.6c0,4.4,3.7,5.4,4.9,5.5c2.2,0.2,8.1,1,10.1,1.2c2.1,0.2,4.4-1.2,4.4-4.1V128
		C331.5,127,331.2,123.4,326.1,122.5"/>
	<path id="XMLID_54_" class="st1" d="M278.9,116.9c-4-0.3-13.5-0.7-13.5-0.7v31.2l7.5,0.3v-25.7c0,0,1.5,0,3,0.1
		c1.5,0.1,2,0.7,2,1.5v24.3l7.4,0.4c0,0,0-24.2,0-26.1C285.1,120.5,283.9,117.3,278.9,116.9"/>
	<path id="XMLID_57_" class="st1" d="M253.9,130.2l-5,0v-7.5c0-0.6,0.5-1.4,2.1-1.4h2.9V130.2z M247.2,116c-3.6,0-5.8,1.7-5.8,5.5
		c0,1.8,0,25.6,0,25.6l7.4-0.1v-12.2l5,0v12.3l7.5,0v-31.1c0,0-5.9-0.1-7.9-0.1H247.2z"/>
	<path id="XMLID_58_" class="st1" d="M237.9,137.4l-5.9,0.2l-1.5,5.2l-2,0.1v-26.3l-7.4,0.4v30.9c0,0,3.1-0.2,8.4-0.3
		c5.4-0.2,8.4-0.2,8.4-0.2V137.4z"/>
	<path id="XMLID_61_" class="st1" d="M208.3,131.4c-1.5,0.2-3.3,0.3-3.3,0.3v-8.1c0.8-0.1,2.3-0.3,3.1-0.3c1.5-0.1,1.7,0.9,1.7,1.3
		c0,0.3,0,5.1,0,5.2v0C209.9,129.8,209.8,131.2,208.3,131.4 M217.3,135.6L217.3,135.6c0.1-1-0.6-2.5-1.8-2.8
		c0.8-0.4,1.7-1.6,1.7-2.9v-7.9c0-2-1.5-4.5-5-4.3c-3.9,0.2-14.6,1.4-14.6,1.4v30.6l7.4-0.6v-12.5c0.9-0.1,3.3-0.4,3.5-0.4
		c1.1-0.1,1.4,0.6,1.4,0.9v11.7l7.4-0.5v0V135.6z"/>
	<path id="XMLID_64_" class="st1" d="M185.7,145.6c-0.5,0.1-1.9,0.3-2.8,0.3c-0.7,0.1-1-0.8-1-1.1c0-0.2,0-17.3,0-17.3
		c0-0.3,0.2-0.9,0.8-1.1c0.7-0.1,2.1-0.3,2.8-0.5c0.6-0.1,1.1,0.5,1.1,0.9c0,0.7,0,17.1,0,17.5C186.6,144.9,186.3,145.5,185.7,145.6
		 M189.4,120.1c-0.9,0-7.6,0.9-9.6,1.2c-1.5,0.3-5.3,1.6-5.2,5.7v21c0,1.8,1,4.1,4.1,3.7c0.9-0.1,7.7-1,10.3-1.3
		c3.8-0.3,5.1-3.3,5-5.4v-20.9C193.9,120.1,190,120.1,189.4,120.1"/>
	<path id="XMLID_67_" class="st1" d="M301.4,143.6c-0.1,0.6-0.6,0.8-1.5,0.7l-3.5-0.3v-20.2c0,0,1.8,0.2,3.1,0.3
		c1.2,0.1,1.7,0.6,1.8,1.2V143.6z M303.1,118.9c-1.7-0.3-14.1-1.4-14.1-1.4v31.1c0,0,11.4,0.9,14,1.2c2.7,0.3,5.6-0.7,5.6-4.3v-20.6
		C308.7,120.4,305.6,119.3,303.1,118.9"/>
</g>
</svg>
